<svg width="32" height="32" viewBox="0 0 32 32" fill="none" xmlns="http://www.w3.org/2000/svg">
<rect width="32" height="32" rx="16" fill="#55595B"/>
<path d="M16.0001 15.9993C17.4734 15.9993 18.6667 14.806 18.6667 13.3327C18.6667 11.8593 17.4734 10.666 16.0001 10.666C14.5267 10.666 13.3334 11.8593 13.3334 13.3327C13.3334 14.806 14.5267 15.9993 16.0001 15.9993ZM16.0001 17.3327C14.2201 17.3327 10.6667 18.226 10.6667 19.9993V20.666C10.6667 21.0327 10.9667 21.3327 11.3334 21.3327H20.6667C21.0334 21.3327 21.3334 21.0327 21.3334 20.666V19.9993C21.3334 18.226 17.7801 17.3327 16.0001 17.3327Z" fill="#F8FBFF"/>
</svg>
