<svg width="24" height="20" viewBox="0 0 24 20" fill="none" xmlns="http://www.w3.org/2000/svg">
<path d="M20.65 1.2625C20.4 0.525 19.7 0 18.875 0H5.125C4.3 0 3.6125 0.525 3.35 1.2625L0.75 8.75V18.75C0.75 19.4375 1.3125 20 2 20H3.25C3.9375 20 4.5 19.4375 4.5 18.75V17.5H19.5V18.75C19.5 19.4375 20.0625 20 20.75 20H22C22.6875 20 23.25 19.4375 23.25 18.75V8.75L20.65 1.2625ZM6.375 13.75C5.3375 13.75 4.5 12.9125 4.5 11.875C4.5 10.8375 5.3375 10 6.375 10C7.4125 10 8.25 10.8375 8.25 11.875C8.25 12.9125 7.4125 13.75 6.375 13.75ZM17.625 13.75C16.5875 13.75 15.75 12.9125 15.75 11.875C15.75 10.8375 16.5875 10 17.625 10C18.6625 10 19.5 10.8375 19.5 11.875C19.5 12.9125 18.6625 13.75 17.625 13.75ZM4.2625 6.25L5.5625 2.5H18.425L19.725 6.25H4.2625Z" fill="white" fill-opacity="0.9"/>
</svg>
