<svg width="18" height="22" viewBox="0 0 18 22" fill="none" xmlns="http://www.w3.org/2000/svg">
<path d="M14.7375 7.875H12.75V1.625C12.75 0.9375 12.1875 0.375 11.5 0.375H6.5C5.8125 0.375 5.25 0.9375 5.25 1.625V7.875H3.2625C2.15 7.875 1.5875 9.225 2.375 10.0125L8.1125 15.75C8.6 16.2375 9.3875 16.2375 9.875 15.75L15.6125 10.0125C16.4 9.225 15.85 7.875 14.7375 7.875ZM0.25 20.375C0.25 21.0625 0.8125 21.625 1.5 21.625H16.5C17.1875 21.625 17.75 21.0625 17.75 20.375C17.75 19.6875 17.1875 19.125 16.5 19.125H1.5C0.8125 19.125 0.25 19.6875 0.25 20.375Z" fill="white" fill-opacity="0.9"/>
</svg>
