<svg width="26" height="16" viewBox="0 0 26 16" fill="none" xmlns="http://www.w3.org/2000/svg">
<path d="M9.2625 10.4992H1.75C1.0625 10.4992 0.5 11.0617 0.5 11.7492C0.5 12.4367 1.0625 12.9992 1.75 12.9992H9.2625V15.2367C9.2625 15.7992 9.9375 16.0742 10.325 15.6742L13.8 12.1867C14.0375 11.9367 14.0375 11.5492 13.8 11.2992L10.325 7.81168C9.9375 7.41168 9.2625 7.69918 9.2625 8.24918V10.4992ZM16.7375 7.73668V5.49918H24.25C24.9375 5.49918 25.5 4.93668 25.5 4.24918C25.5 3.56168 24.9375 2.99918 24.25 2.99918H16.7375V0.761684C16.7375 0.199184 16.0625 -0.0758163 15.675 0.324184L12.2 3.81168C11.9625 4.06168 11.9625 4.44918 12.2 4.69918L15.675 8.18668C16.0625 8.57418 16.7375 8.29918 16.7375 7.73668Z" fill="white" fill-opacity="0.9"/>
</svg>
