<svg width="26" height="24" viewBox="0 0 26 24" fill="none" xmlns="http://www.w3.org/2000/svg">
<path d="M10.5 16.375H17.85C18.1875 15.9875 18.6875 15.75 19.25 15.75C20.2875 15.75 21.125 16.5875 21.125 17.625C21.125 18.6625 20.2875 19.5 19.25 19.5C18.7 19.5 18.2 19.2625 17.85 18.875H12.875C12.3 21.725 9.775 23.875 6.75 23.875C3.3 23.875 0.5 21.075 0.5 17.625C0.5 14.6 2.65 12.075 5.5 11.5V14.0875C4.05 14.6 3 16 3 17.625C3 19.6875 4.6875 21.375 6.75 21.375C8.8125 21.375 10.5 19.6875 10.5 17.625V16.375ZM13.625 2.625C15.6875 2.625 17.375 4.3125 17.375 6.375H19.875C19.875 2.925 17.075 0.125 13.625 0.125C10.175 0.125 7.375 2.925 7.375 6.375C7.375 8.1625 8.125 9.7625 9.3125 10.9L6.375 15.775C5.525 15.95 4.875 16.7125 4.875 17.625C4.875 18.6625 5.7125 19.5 6.75 19.5C7.7875 19.5 8.625 18.6625 8.625 17.625C8.625 17.425 8.6 17.2375 8.5375 17.0625L12.7625 10.025C11.1125 9.6375 9.875 8.15 9.875 6.375C9.875 4.3125 11.5625 2.625 13.625 2.625ZM19.25 13.875C18.45 13.875 17.7125 14.125 17.1 14.55L13.2875 8.2125C12.4125 8.0625 11.75 7.3 11.75 6.375C11.75 5.3375 12.5875 4.5 13.625 4.5C14.6625 4.5 15.5 5.3375 15.5 6.375C15.5 6.5625 15.475 6.7375 15.425 6.9125L18.1625 11.475C18.5125 11.4125 18.875 11.375 19.25 11.375C22.7 11.375 25.5 14.175 25.5 17.625C25.5 21.075 22.7 23.875 19.25 23.875C16.9375 23.875 14.9125 22.6125 13.8375 20.75H17.175C17.775 21.15 18.4875 21.375 19.25 21.375C21.3125 21.375 23 19.6875 23 17.625C23 15.5625 21.3125 13.875 19.25 13.875Z" fill="white" fill-opacity="0.9"/>
</svg>
