<svg width="26" height="24" viewBox="0 0 26 24" fill="none" xmlns="http://www.w3.org/2000/svg">
<path d="M13 0.5C6.1 0.5 0.5 6.1 0.5 13C0.5 19.9 6.1 25.5 13 25.5H23C24.375 25.5 25.5 24.375 25.5 23V13C25.5 6.1 19.9 0.5 13 0.5ZM13 23C9.3875 23 6.2125 21.075 4.4625 18.2L8.15 14.5125L12.2625 18L18 12.275V14.25H20.5V8H14.25V10.5H16.225L12.125 14.6L8 11.125L3.3875 15.75C3.1375 14.875 3 13.95 3 13C3 7.4875 7.4875 3 13 3C18.5125 3 23 7.4875 23 13C23 18.5125 18.5125 23 13 23ZM22.375 23.625C21.6875 23.625 21.125 23.0625 21.125 22.375C21.125 21.6875 21.6875 21.125 22.375 21.125C23.0625 21.125 23.625 21.6875 23.625 22.375C23.625 23.0625 23.0625 23.625 22.375 23.625Z" fill="white" fill-opacity="0.9"/>
</svg>
