<svg width="14" height="14" viewBox="0 0 14 14" fill="none" xmlns="http://www.w3.org/2000/svg">
<path d="M11.6668 3.33398C11.6668 3.88627 11.2191 4.33398 10.6668 4.33398C10.1145 4.33398 9.66683 3.88627 9.66683 3.33398C9.66683 2.7817 10.1145 2.33398 10.6668 2.33398C11.2191 2.33398 11.6668 2.7817 11.6668 3.33398Z" fill="white" fill-opacity="0.9"/>
<path fill-rule="evenodd" clip-rule="evenodd" d="M7.00016 10.334C8.84111 10.334 10.3335 8.8416 10.3335 7.00065C10.3335 5.1597 8.84111 3.66732 7.00016 3.66732C5.15921 3.66732 3.66683 5.1597 3.66683 7.00065C3.66683 8.8416 5.15921 10.334 7.00016 10.334ZM7.00016 9.00065C8.10473 9.00065 9.00016 8.10522 9.00016 7.00065C9.00016 5.89608 8.10473 5.00065 7.00016 5.00065C5.89559 5.00065 5.00016 5.89608 5.00016 7.00065C5.00016 8.10522 5.89559 9.00065 7.00016 9.00065Z" fill="white" fill-opacity="0.9"/>
<path fill-rule="evenodd" clip-rule="evenodd" d="M0.333496 6.73398C0.333496 4.49377 0.333496 3.37367 0.76947 2.51802C1.15296 1.76537 1.76489 1.15345 2.51753 0.769958C3.37318 0.333984 4.49329 0.333984 6.7335 0.333984H7.26683C9.50704 0.333984 10.6271 0.333984 11.4828 0.769958C12.2354 1.15345 12.8474 1.76537 13.2309 2.51802C13.6668 3.37367 13.6668 4.49377 13.6668 6.73398V7.26732C13.6668 9.50753 13.6668 10.6276 13.2309 11.4833C12.8474 12.2359 12.2354 12.8478 11.4828 13.2313C10.6271 13.6673 9.50704 13.6673 7.26683 13.6673H6.7335C4.49329 13.6673 3.37318 13.6673 2.51753 13.2313C1.76489 12.8478 1.15296 12.2359 0.76947 11.4833C0.333496 10.6276 0.333496 9.50753 0.333496 7.26732V6.73398ZM6.7335 1.66732H7.26683C8.40893 1.66732 9.18533 1.66835 9.78545 1.71739C10.37 1.76515 10.6689 1.85171 10.8775 1.95797C11.3792 2.21363 11.7872 2.62158 12.0428 3.12334C12.1491 3.33188 12.2357 3.63081 12.2834 4.21537C12.3325 4.81549 12.3335 5.59188 12.3335 6.73398V7.26732C12.3335 8.40942 12.3325 9.18581 12.2834 9.78593C12.2357 10.3705 12.1491 10.6694 12.0428 10.878C11.7872 11.3797 11.3792 11.7877 10.8775 12.0433C10.6689 12.1496 10.37 12.2362 9.78545 12.2839C9.18533 12.3329 8.40893 12.334 7.26683 12.334H6.7335C5.59139 12.334 4.815 12.3329 4.21488 12.2839C3.63033 12.2362 3.33139 12.1496 3.12285 12.0433C2.62109 11.7877 2.21314 11.3797 1.95748 10.878C1.85123 10.6694 1.76466 10.3705 1.7169 9.78593C1.66787 9.18581 1.66683 8.40942 1.66683 7.26732V6.73398C1.66683 5.59188 1.66787 4.81549 1.7169 4.21537C1.76466 3.63081 1.85123 3.33188 1.95748 3.12334C2.21314 2.62158 2.62109 2.21363 3.12285 1.95797C3.33139 1.85171 3.63033 1.76515 4.21488 1.71739C4.815 1.66835 5.59139 1.66732 6.7335 1.66732Z" fill="white" fill-opacity="0.9"/>
</svg>
