<svg width="15" height="14" viewBox="0 0 15 14" fill="none" xmlns="http://www.w3.org/2000/svg">
<path d="M4.04382 1.94555C4.04382 2.8356 3.28778 3.55712 2.35516 3.55712C1.42254 3.55712 0.666504 2.8356 0.666504 1.94555C0.666504 1.05551 1.42254 0.333984 2.35516 0.333984C3.28778 0.333984 4.04382 1.05551 4.04382 1.94555Z" fill="white" fill-opacity="0.9"/>
<path d="M0.897432 4.7417H3.78403V13.6673H0.897432V4.7417Z" fill="white" fill-opacity="0.9"/>
<path d="M8.43145 4.7417H5.54485V13.6673H8.43145C8.43145 13.6673 8.43145 10.8574 8.43145 9.10051C8.43145 8.046 8.78432 6.98688 10.1923 6.98688C11.7835 6.98688 11.7739 8.36687 11.7665 9.43598C11.7568 10.8335 11.7799 12.2596 11.7799 13.6673H14.6665V8.95657C14.6421 5.94863 13.8739 4.56263 11.3469 4.56263C9.84621 4.56263 8.91597 5.25785 8.43145 5.88683V4.7417Z" fill="white" fill-opacity="0.9"/>
</svg>
