<svg width="26" height="24" viewBox="0 0 26 24" fill="none" xmlns="http://www.w3.org/2000/svg">
<path d="M22.083 7H20.833V0.75H5.83301V7H4.58301C2.50801 7 0.833008 8.675 0.833008 10.75V18.25H5.83301V23.25H20.833V18.25H25.833V10.75C25.833 8.675 24.158 7 22.083 7ZM8.33301 3.25H18.333V7H8.33301V3.25ZM18.333 20.75H8.33301V15.75H18.333V20.75ZM20.833 15.75V13.25H5.83301V15.75H3.33301V10.75C3.33301 10.0625 3.89551 9.5 4.58301 9.5H22.083C22.7705 9.5 23.333 10.0625 23.333 10.75V15.75H20.833Z" fill="white" fill-opacity="0.9"/>
<path d="M20.833 12.625C21.5234 12.625 22.083 12.0654 22.083 11.375C22.083 10.6846 21.5234 10.125 20.833 10.125C20.1427 10.125 19.583 10.6846 19.583 11.375C19.583 12.0654 20.1427 12.625 20.833 12.625Z" fill="white" fill-opacity="0.9"/>
</svg>
