<svg width="16" height="14" viewBox="0 0 16 14" fill="none" xmlns="http://www.w3.org/2000/svg">
<path d="M5.02214 13.6673C3.17357 13.6673 1.45039 13.1219 0 12.1807C1.23142 12.2616 3.40461 12.068 4.75633 10.7599C2.7229 10.6653 1.80586 9.08314 1.68625 8.40701C1.85903 8.47462 2.68303 8.55576 3.14819 8.36644C0.809085 7.77144 0.450244 5.68895 0.529987 5.05339C0.96857 5.36441 1.71283 5.47259 2.00522 5.44555C-0.174404 3.8634 0.609729 1.48341 0.99515 0.969549C2.55933 3.16799 4.90354 4.40272 7.80365 4.4714C7.74897 4.2281 7.72009 3.97481 7.72009 3.71465C7.72009 1.84756 9.20766 0.333984 11.0427 0.333984C12.0015 0.333984 12.8654 0.747175 13.4718 1.40809C14.1125 1.25578 15.0767 0.899241 15.5481 0.590915C15.3105 1.45636 14.5708 2.17833 14.1234 2.44591C14.1271 2.45502 14.1197 2.43677 14.1234 2.44591C14.5164 2.3856 15.5799 2.17826 16 1.88909C15.7922 2.37529 15.008 3.18368 14.3644 3.63626C14.4842 8.99373 10.4437 13.6673 5.02214 13.6673Z" fill="white" fill-opacity="0.9"/>
</svg>
