<svg width="21" height="6" viewBox="0 0 21 6" fill="none" xmlns="http://www.w3.org/2000/svg">
<path d="M2.83301 0.5C1.45801 0.5 0.333008 1.625 0.333008 3C0.333008 4.375 1.45801 5.5 2.83301 5.5C4.20801 5.5 5.33301 4.375 5.33301 3C5.33301 1.625 4.20801 0.5 2.83301 0.5ZM17.833 0.5C16.458 0.5 15.333 1.625 15.333 3C15.333 4.375 16.458 5.5 17.833 5.5C19.208 5.5 20.333 4.375 20.333 3C20.333 1.625 19.208 0.5 17.833 0.5ZM10.333 0.5C8.95801 0.5 7.83301 1.625 7.83301 3C7.83301 4.375 8.95801 5.5 10.333 5.5C11.708 5.5 12.833 4.375 12.833 3C12.833 1.625 11.708 0.5 10.333 0.5Z" fill="white" fill-opacity="0.9"/>
</svg>
